<svg width="153" height="71" viewBox="0 0 153 71" fill="none" xmlns="http://www.w3.org/2000/svg">
<g filter="url(#filter0_d_57_298)">
<rect x="2" y="2" width="145" height="63" fill="black"/>
<rect x="1" y="1" width="147" height="65" stroke="black" stroke-width="2"/>
</g>
<g filter="url(#filter1_di_57_298)">
<rect x="2" y="2" width="145" height="63" fill="white"/>
<rect x="1" y="1" width="147" height="65" stroke="black" stroke-width="2"/>
</g>
<path d="M34.448 28.184C34.1067 29.4213 33.4667 30.392 32.528 31.096C31.5893 31.7787 30.4053 32.2053 28.976 32.376C30 32.4613 30.768 32.76 31.28 33.272C31.792 33.784 32.048 34.456 32.048 35.288C32.048 35.608 31.9947 36.0027 31.888 36.472L31.536 38.04C31.4933 38.2533 31.472 38.4027 31.472 38.488C31.472 38.7653 31.536 38.9787 31.664 39.128C31.792 39.256 31.9733 39.32 32.208 39.32C32.656 39.32 32.976 39.384 33.168 39.512C33.3813 39.64 33.456 39.8747 33.392 40.216C33.3067 40.7067 33.0507 41.1867 32.624 41.656C32.1973 42.1253 31.5893 42.52 30.8 42.84C30.032 43.1387 29.0933 43.288 27.984 43.288C26.576 43.288 25.456 42.9787 24.624 42.36C23.792 41.72 23.376 40.8133 23.376 39.64C23.376 39.192 23.44 38.712 23.568 38.2L24.08 36.152C24.1653 35.8747 24.208 35.5867 24.208 35.288C24.208 34.7973 24.0373 34.4453 23.696 34.232C23.376 34.0187 22.8533 33.912 22.128 33.912H20.912L19.44 39.224C19.3973 39.352 19.376 39.512 19.376 39.704C19.376 40.0027 19.4507 40.2587 19.6 40.472C19.7493 40.6853 19.952 40.9093 20.208 41.144C20.4 41.2933 20.5493 41.4427 20.656 41.592C20.7627 41.72 20.816 41.8587 20.816 42.008C20.816 42.3707 20.6453 42.6267 20.304 42.776C19.9627 42.9253 19.4613 43 18.8 43H10.768C10.2133 43 9.79733 42.904 9.52 42.712C9.24267 42.4987 9.14667 42.2107 9.232 41.848C9.27467 41.656 9.36 41.5067 9.488 41.4C9.59467 41.272 9.76533 41.1333 10 40.984C10.3627 40.7707 10.6507 40.5467 10.864 40.312C11.0773 40.0773 11.248 39.7147 11.376 39.224L15.28 25.432C15.3653 25.1547 15.408 24.888 15.408 24.632C15.408 24.3973 15.3653 24.2053 15.28 24.056C15.216 23.8853 15.12 23.6933 14.992 23.48C14.8 23.2027 14.704 22.9787 14.704 22.808C14.704 22.744 14.7253 22.6267 14.768 22.456C14.8533 22.1787 15.0347 21.9867 15.312 21.88C15.6107 21.752 16.0587 21.688 16.656 21.688H27.376C28.848 21.688 30.128 21.912 31.216 22.36C32.3253 22.808 33.168 23.4267 33.744 24.216C34.3413 24.984 34.64 25.8587 34.64 26.84C34.64 27.288 34.576 27.736 34.448 28.184ZM26.256 27.864C26.3627 27.3733 26.416 27 26.416 26.744C26.416 25.6133 25.7973 25.048 24.56 25.048H23.216L21.808 30.712H23.152C23.984 30.712 24.6347 30.5093 25.104 30.104C25.5947 29.6987 25.9787 28.952 26.256 27.864ZM45.1293 25.912C47.8386 25.912 49.8013 26.3493 51.0173 27.224C52.2333 28.0773 52.8413 29.176 52.8413 30.52C52.8413 30.9253 52.7986 31.2987 52.7133 31.64C52.3933 33.048 51.4973 34.0613 50.0253 34.68C48.5746 35.2773 46.8573 35.576 44.8733 35.576C43.8706 35.576 42.9319 35.512 42.0573 35.384C42.0359 36.4933 42.3346 37.272 42.9533 37.72C43.5719 38.168 44.4359 38.392 45.5453 38.392C46.0573 38.392 46.5479 38.3387 47.0173 38.232C47.4866 38.104 48.0839 37.9227 48.8093 37.688C49.4066 37.4747 49.8119 37.368 50.0253 37.368C50.2599 37.368 50.3773 37.5067 50.3773 37.784C50.3986 38.5307 50.1213 39.32 49.5453 40.152C48.9693 40.9627 48.1159 41.656 46.9853 42.232C45.8546 42.808 44.4893 43.096 42.8893 43.096C40.5213 43.096 38.5799 42.4987 37.0653 41.304C35.5506 40.1093 34.7933 38.3707 34.7933 36.088C34.7933 35.448 34.8786 34.7013 35.0493 33.848C35.5826 31.224 36.7453 29.2507 38.5373 27.928C40.3506 26.584 42.5479 25.912 45.1293 25.912ZM42.2812 33.464C42.3666 33.4853 42.4839 33.496 42.6333 33.496C43.5293 33.496 44.2119 33.08 44.6813 32.248C45.1506 31.416 45.3746 30.488 45.3533 29.464C45.3319 28.8667 45.1613 28.568 44.8413 28.568C44.6066 28.568 44.3293 28.76 44.0093 29.144C43.6893 29.5067 43.3693 30.0613 43.0493 30.808C42.7506 31.5547 42.4946 32.44 42.2812 33.464ZM62.7155 25.784C64.4862 25.784 66.0115 25.944 67.2915 26.264C68.5928 26.584 69.5848 27.032 70.2675 27.608C70.9715 28.184 71.3235 28.8347 71.3235 29.56C71.3235 30.3067 71.0248 30.9147 70.4275 31.384C69.8515 31.8533 69.0408 32.088 67.9955 32.088C66.9288 32.088 66.0222 31.8213 65.2755 31.288C64.5502 30.7547 64.1875 30.0827 64.1875 29.272C64.1875 28.9947 64.2302 28.728 64.3155 28.472C63.9315 28.3653 63.5902 28.312 63.2915 28.312C62.7582 28.312 62.3102 28.44 61.9475 28.696C61.6062 28.952 61.4462 29.3147 61.4675 29.784C61.4675 30.3387 61.7448 30.808 62.2995 31.192C62.8542 31.576 63.7502 32.056 64.9875 32.632C66.0542 33.1013 66.9288 33.5387 67.6115 33.944C68.3155 34.328 68.9022 34.8187 69.3715 35.416C69.8622 36.0133 70.1075 36.7173 70.1075 37.528C70.1075 37.6987 70.0648 38.0187 69.9795 38.488C69.6382 39.9173 68.6888 41.048 67.1315 41.88C65.5742 42.712 63.5262 43.128 60.9875 43.128C58.1288 43.128 55.8568 42.744 54.1715 41.976C52.5075 41.208 51.6755 40.152 51.6755 38.808C51.6755 37.8907 51.9528 37.1973 52.5075 36.728C53.0622 36.2587 53.7982 36.024 54.7155 36.024C55.7822 36.024 56.6888 36.3547 57.4355 37.016C58.2035 37.6773 58.5875 38.52 58.5875 39.544C58.5875 39.8213 58.5555 40.1093 58.4915 40.408C59.0035 40.536 59.4942 40.6 59.9635 40.6C60.5182 40.6 60.9768 40.4507 61.3395 40.152C61.7022 39.8533 61.8835 39.4373 61.8835 38.904C61.8622 38.4133 61.6168 37.9973 61.1475 37.656C60.6782 37.2933 59.9315 36.8667 58.9075 36.376C57.9475 35.928 57.1582 35.512 56.5395 35.128C55.9208 34.7227 55.3875 34.2213 54.9395 33.624C54.5128 33.0267 54.2995 32.3227 54.2995 31.512C54.2995 29.7627 55.0248 28.376 56.4755 27.352C57.9475 26.3067 60.0275 25.784 62.7155 25.784ZM85.4603 26.488C85.8656 26.488 86.1749 26.5733 86.3883 26.744C86.6229 26.9147 86.7403 27.1493 86.7403 27.448C86.7403 27.5333 86.7189 27.6827 86.6763 27.896C86.3989 28.8347 85.7589 29.304 84.7563 29.304H82.9003L80.5003 37.208C80.3936 37.528 80.3403 37.8587 80.3403 38.2C80.3403 38.584 80.4469 38.8507 80.6603 39C80.8736 39.1493 81.1723 39.224 81.5563 39.224C81.8976 39.224 82.3243 39.1813 82.8363 39.096C83.0923 39.032 83.3163 39 83.5083 39C83.6576 39 83.7643 39.0533 83.8283 39.16C83.9136 39.2453 83.9563 39.3627 83.9563 39.512C83.9776 39.9387 83.6576 40.4613 82.9963 41.08C82.3563 41.6773 81.4816 42.2 80.3723 42.648C79.2629 43.0747 78.0363 43.288 76.6923 43.288C75.2416 43.288 74.0789 42.9573 73.2043 42.296C72.3296 41.6347 71.8923 40.728 71.8923 39.576C71.8923 39.0427 71.9776 38.5307 72.1483 38.04L74.1963 31.704C74.3029 31.3413 74.3563 31.0533 74.3563 30.84C74.3563 30.4133 74.2496 30.0507 74.0363 29.752C73.8443 29.4533 73.5669 29.144 73.2043 28.824C72.8843 28.5253 72.6603 28.28 72.5323 28.088C72.4043 27.8747 72.3723 27.6293 72.4363 27.352C72.5216 27.0747 72.7029 26.8613 72.9803 26.712C73.2576 26.5627 73.6949 26.488 74.2923 26.488H76.0843L78.1003 24.472C78.8043 23.768 79.4443 23.2773 80.0203 23C80.6176 22.7227 81.3856 22.584 82.3243 22.584C83.6683 22.584 84.3403 23.096 84.3403 24.12C84.3403 24.44 84.2976 24.7387 84.2123 25.016L83.7643 26.488H85.4603ZM96.3303 26.072C98.7836 26.072 100.746 26.5307 102.218 27.448C103.69 28.344 104.426 29.72 104.426 31.576C104.426 32.28 104.298 33.08 104.042 33.976L102.73 38.392C102.709 38.4773 102.698 38.584 102.698 38.712C102.698 39.0533 102.837 39.224 103.114 39.224C103.37 39.224 103.584 39.1173 103.754 38.904C103.946 38.6693 104.074 38.552 104.138 38.552C104.245 38.552 104.33 38.6267 104.394 38.776C104.48 38.9253 104.522 39.096 104.522 39.288C104.544 39.864 104.32 40.4507 103.85 41.048C103.402 41.6453 102.794 42.136 102.026 42.52C101.258 42.904 100.416 43.096 99.4983 43.096C98.3889 43.096 97.4396 42.8933 96.6503 42.488C95.8609 42.0827 95.3169 41.4853 95.0183 40.696C94.3783 41.464 93.6209 42.0613 92.7463 42.488C91.8716 42.8933 90.9329 43.096 89.9303 43.096C88.7996 43.096 87.8503 42.8827 87.0823 42.456C86.3143 42.008 85.7383 41.4427 85.3543 40.76C84.9916 40.056 84.8102 39.32 84.8102 38.552C84.8102 38.2107 84.8422 37.88 84.9062 37.56C85.2476 36.088 85.9836 34.9787 87.1143 34.232C88.2663 33.4853 89.6316 33.112 91.2103 33.112C92.9809 33.112 94.7196 33.3893 96.4263 33.944L97.2263 31.832C97.5036 30.936 97.6423 30.2427 97.6423 29.752C97.6209 29.24 97.4503 28.856 97.1303 28.6C96.8103 28.344 96.3196 28.216 95.6583 28.216C95.7863 28.5573 95.8503 28.9093 95.8503 29.272C95.8503 30.0613 95.5516 30.744 94.9543 31.32C94.3569 31.896 93.5036 32.184 92.3943 32.184C91.3489 32.184 90.5276 31.96 89.9303 31.512C89.3543 31.0427 89.0663 30.4667 89.0663 29.784C89.0663 28.7173 89.6636 27.832 90.8583 27.128C92.0529 26.424 93.8769 26.072 96.3303 26.072ZM94.5383 35.768C93.9409 35.768 93.4503 36.0027 93.0663 36.472C92.7036 36.92 92.5223 37.4107 92.5223 37.944C92.5223 38.2853 92.5969 38.5627 92.7463 38.776C92.9169 38.9893 93.1516 39.096 93.4503 39.096C93.7276 39.096 94.0263 38.9893 94.3463 38.776C94.6876 38.5413 94.9329 38.2 95.0823 37.752L95.7543 35.864C95.3916 35.8 94.9863 35.768 94.5383 35.768ZM121.556 26.072C122.75 26.072 123.7 26.4347 124.404 27.16C125.129 27.8853 125.492 28.7813 125.492 29.848C125.492 30.2533 125.449 30.6267 125.364 30.968C125.15 31.8427 124.745 32.5147 124.148 32.984C123.55 33.4533 122.836 33.688 122.004 33.688C121.193 33.688 120.574 33.496 120.148 33.112C119.742 32.728 119.38 32.216 119.06 31.576C118.889 31.2133 118.729 30.9467 118.58 30.776C118.43 30.6053 118.26 30.52 118.068 30.52C117.854 30.52 117.662 30.6053 117.492 30.776C117.342 30.9467 117.204 31.2453 117.076 31.672L114.612 39.672C114.569 39.7787 114.548 39.9387 114.548 40.152C114.548 40.4293 114.622 40.664 114.772 40.856C114.942 41.0267 115.166 41.1973 115.444 41.368C115.7 41.5387 115.87 41.6773 115.956 41.784C116.041 41.8907 116.073 42.0293 116.052 42.2C116.009 42.4773 115.849 42.68 115.572 42.808C115.316 42.936 114.868 43 114.228 43H106.036C105.481 43 105.086 42.9147 104.852 42.744C104.596 42.552 104.5 42.3067 104.564 42.008C104.649 41.752 104.873 41.528 105.236 41.336C105.556 41.1653 105.822 40.9627 106.036 40.728C106.249 40.4933 106.43 40.12 106.58 39.608L109.428 30.36C109.47 30.2533 109.492 30.104 109.492 29.912C109.492 29.6773 109.438 29.496 109.332 29.368C109.246 29.24 109.097 29.08 108.884 28.888C108.67 28.7173 108.521 28.568 108.436 28.44C108.35 28.312 108.34 28.1413 108.404 27.928C108.532 27.4373 109.204 27.0107 110.42 26.648C111.636 26.264 112.905 26.072 114.228 26.072C115.102 26.072 115.828 26.2747 116.404 26.68C116.98 27.064 117.353 27.6187 117.524 28.344C118.548 26.8293 119.892 26.072 121.556 26.072ZM138.679 26.488C139.084 26.488 139.394 26.5733 139.607 26.744C139.842 26.9147 139.959 27.1493 139.959 27.448C139.959 27.5333 139.938 27.6827 139.895 27.896C139.618 28.8347 138.978 29.304 137.975 29.304H136.119L133.719 37.208C133.612 37.528 133.559 37.8587 133.559 38.2C133.559 38.584 133.666 38.8507 133.879 39C134.092 39.1493 134.391 39.224 134.775 39.224C135.116 39.224 135.543 39.1813 136.055 39.096C136.311 39.032 136.535 39 136.727 39C136.876 39 136.983 39.0533 137.047 39.16C137.132 39.2453 137.175 39.3627 137.175 39.512C137.196 39.9387 136.876 40.4613 136.215 41.08C135.575 41.6773 134.7 42.2 133.591 42.648C132.482 43.0747 131.255 43.288 129.911 43.288C128.46 43.288 127.298 42.9573 126.423 42.296C125.548 41.6347 125.111 40.728 125.111 39.576C125.111 39.0427 125.196 38.5307 125.367 38.04L127.415 31.704C127.522 31.3413 127.575 31.0533 127.575 30.84C127.575 30.4133 127.468 30.0507 127.255 29.752C127.063 29.4533 126.786 29.144 126.423 28.824C126.103 28.5253 125.879 28.28 125.751 28.088C125.623 27.8747 125.591 27.6293 125.655 27.352C125.74 27.0747 125.922 26.8613 126.199 26.712C126.476 26.5627 126.914 26.488 127.511 26.488H129.303L131.319 24.472C132.023 23.768 132.663 23.2773 133.239 23C133.836 22.7227 134.604 22.584 135.543 22.584C136.887 22.584 137.559 23.096 137.559 24.12C137.559 24.44 137.516 24.7387 137.431 25.016L136.983 26.488H138.679Z" fill="black"/>
<defs>
<filter id="filter0_d_57_298" x="0" y="0" width="153" height="71" filterUnits="userSpaceOnUse" color-interpolation-filters="sRGB">
<feFlood flood-opacity="0" result="BackgroundImageFix"/>
<feColorMatrix in="SourceAlpha" type="matrix" values="0 0 0 0 0 0 0 0 0 0 0 0 0 0 0 0 0 0 127 0" result="hardAlpha"/>
<feOffset dx="4" dy="4"/>
<feComposite in2="hardAlpha" operator="out"/>
<feColorMatrix type="matrix" values="0 0 0 0 0 0 0 0 0 0 0 0 0 0 0 0 0 0 1 0"/>
<feBlend mode="normal" in2="BackgroundImageFix" result="effect1_dropShadow_57_298"/>
<feBlend mode="normal" in="SourceGraphic" in2="effect1_dropShadow_57_298" result="shape"/>
</filter>
<filter id="filter1_di_57_298" x="0" y="0" width="153" height="71" filterUnits="userSpaceOnUse" color-interpolation-filters="sRGB">
<feFlood flood-opacity="0" result="BackgroundImageFix"/>
<feColorMatrix in="SourceAlpha" type="matrix" values="0 0 0 0 0 0 0 0 0 0 0 0 0 0 0 0 0 0 127 0" result="hardAlpha"/>
<feOffset dx="4" dy="4"/>
<feComposite in2="hardAlpha" operator="out"/>
<feColorMatrix type="matrix" values="0 0 0 0 0 0 0 0 0 0 0 0 0 0 0 0 0 0 1 0"/>
<feBlend mode="normal" in2="BackgroundImageFix" result="effect1_dropShadow_57_298"/>
<feBlend mode="normal" in="SourceGraphic" in2="effect1_dropShadow_57_298" result="shape"/>
<feColorMatrix in="SourceAlpha" type="matrix" values="0 0 0 0 0 0 0 0 0 0 0 0 0 0 0 0 0 0 127 0" result="hardAlpha"/>
<feOffset dx="4" dy="-7"/>
<feComposite in2="hardAlpha" operator="arithmetic" k2="-1" k3="1"/>
<feColorMatrix type="matrix" values="0 0 0 0 0.7625 0 0 0 0 0.7625 0 0 0 0 0.7625 0 0 0 1 0"/>
<feBlend mode="normal" in2="shape" result="effect2_innerShadow_57_298"/>
</filter>
</defs>
</svg>
